HIERARCHY
ROOT Hips
{
	OFFSET -0.104279 88.258125 2.461052
	CHANNELS 6 Xposition Yposition Zposition Zrotation Yrotation Xrotation 
	JOINT Spine
	{
		OFFSET -0.000000 8.814246 -2.080107
		CHANNELS 3 Zrotation Yrotation Xrotation
		JOINT Spine1
		{
			OFFSET 0.000000 8.844141 0.000000
			CHANNELS 3 Zrotation Yrotation Xrotation
			JOINT Spine2
			{
				OFFSET -0.000000 11.682268 0.000000
				CHANNELS 3 Zrotation Yrotation Xrotation
				JOINT Spine3
				{
					OFFSET 0.000000 11.746700 0.000000
					CHANNELS 3 Zrotation Yrotation Xrotation
					JOINT Neck
					{
						OFFSET 0.000000 17.658264 -0.000000
						CHANNELS 3 Zrotation Yrotation Xrotation
						JOINT Neck1
						{
							OFFSET -0.000000 5.101515 0.000000
							CHANNELS 3 Zrotation Yrotation Xrotation
							JOINT Head
							{
								OFFSET 0.000000 5.101515 -0.000000
								CHANNELS 3 Zrotation Yrotation Xrotation
								JOINT HeadEnd
								{
									OFFSET -0.000000 11.655085 -0.000000
									CHANNELS 3 Zrotation Yrotation Xrotation
									End Site
									{
										OFFSET 0.000000 0.000000 0.000000
									}
								}
							}
						}
					}
					JOINT RightShoulder
					{
						OFFSET -2.625389 11.175210 -0.000000
						CHANNELS 3 Zrotation Yrotation Xrotation
						JOINT RightArm
						{
							OFFSET 0.000000 10.434715 0.000000
							CHANNELS 3 Zrotation Yrotation Xrotation
							JOINT RightForeArm
							{
								OFFSET -0.000000 29.628420 -0.000000
								CHANNELS 3 Zrotation Yrotation Xrotation
								JOINT RightHand
								{
									OFFSET -0.000000 22.857611 0.000000
									CHANNELS 3 Zrotation Yrotation Xrotation
									JOINT RightHandThumb1
									{
										OFFSET -2.867323 3.959563 2.944291
										CHANNELS 3 Zrotation Yrotation Xrotation
										JOINT RightHandThumb2
										{
											OFFSET -0.000000 3.350399 0.000000
											CHANNELS 3 Zrotation Yrotation Xrotation
											JOINT RightHandThumb3
											{
												OFFSET 0.000000 3.756509 -0.000000
												CHANNELS 3 Zrotation Yrotation Xrotation
												JOINT RightHandThumb4
												{
													OFFSET -0.000000 3.147345 0.000000
													CHANNELS 3 Zrotation Yrotation Xrotation
													End Site
													{
														OFFSET 0.000000 0.000000 0.000000
													}
												}
											}
										}
									}
									JOINT RightHandIndex1
									{
										OFFSET -0.086752 10.030893 2.345280
										CHANNELS 3 Zrotation Yrotation Xrotation
										JOINT RightHandIndex2
										{
											OFFSET -0.000000 4.061090 0.000000
											CHANNELS 3 Zrotation Yrotation Xrotation
											JOINT RightHandIndex3
											{
												OFFSET -0.000000 3.248873 -0.000000
												CHANNELS 3 Zrotation Yrotation Xrotation
												JOINT RightHandIndex4
												{
													OFFSET -0.000000 2.639709 -0.000000
													CHANNELS 3 Zrotation Yrotation Xrotation
													End Site
													{
														OFFSET 0.000000 0.000000 0.000000
													}
												}
											}
										}
									}
									JOINT RightHandMiddle1
									{
										OFFSET 0.104102 9.502952 0.006768
										CHANNELS 3 Zrotation Yrotation Xrotation
										JOINT RightHandMiddle2
										{
											OFFSET 0.000000 4.568727 -0.000000
											CHANNELS 3 Zrotation Yrotation Xrotation
											JOINT RightHandMiddle3
											{
												OFFSET -0.000000 3.654981 0.000000
												CHANNELS 3 Zrotation Yrotation Xrotation
												JOINT RightHandMiddle4
												{
													OFFSET -0.000000 2.741236 0.000000
													CHANNELS 3 Zrotation Yrotation Xrotation
													End Site
													{
														OFFSET 0.000000 0.000000 0.000000
													}
												}
											}
										}
									}
									JOINT RightHandRing1
									{
										OFFSET 0.086752 8.921708 -2.267442
										CHANNELS 3 Zrotation Yrotation Xrotation
										JOINT RightHandRing2
										{
											OFFSET -0.000000 4.061090 0.000000
											CHANNELS 3 Zrotation Yrotation Xrotation
											JOINT RightHandRing3
											{
												OFFSET -0.000000 3.654981 -0.000000
												CHANNELS 3 Zrotation Yrotation Xrotation
												JOINT RightHandRing4
												{
													OFFSET -0.000000 2.741236 0.000000
													CHANNELS 3 Zrotation Yrotation Xrotation
													End Site
													{
														OFFSET 0.000000 0.000000 0.000000
													}
												}
											}
										}
									}
									JOINT RightHandPinky1
									{
										OFFSET -0.173504 7.976997 -4.467199
										CHANNELS 3 Zrotation Yrotation Xrotation
										JOINT RightHandPinky2
										{
											OFFSET 0.000000 3.350399 -0.000000
											CHANNELS 3 Zrotation Yrotation Xrotation
											JOINT RightHandPinky3
											{
												OFFSET -0.000000 2.842763 -0.000000
												CHANNELS 3 Zrotation Yrotation Xrotation
												JOINT RightHandPinky4
												{
													OFFSET -0.000000 2.639709 -0.000000
													CHANNELS 3 Zrotation Yrotation Xrotation
													End Site
													{
														OFFSET 0.000000 0.000000 0.000000
													}
												}
											}
										}
									}
									JOINT RightForeArmEnd
									{
										OFFSET 0.000000 0.000000 0.000000
										CHANNELS 3 Zrotation Yrotation Xrotation
										End Site
										{
											OFFSET 0.000000 0.000000 0.000000
										}
									}
								}
								JOINT RightArmEnd
								{
									OFFSET 0.000000 0.000000 0.000000
									CHANNELS 3 Zrotation Yrotation Xrotation
									End Site
									{
										OFFSET 0.000000 0.000000 0.000000
									}
								}
							}
						}
					}
					JOINT LeftShoulder
					{
						OFFSET 2.625389 11.175210 0.000000
						CHANNELS 3 Zrotation Yrotation Xrotation
						JOINT LeftArm
						{
							OFFSET 0.000000 10.813635 -0.000000
							CHANNELS 3 Zrotation Yrotation Xrotation
							JOINT LeftForeArm
							{
								OFFSET 0.000000 28.724781 0.000000
								CHANNELS 3 Zrotation Yrotation Xrotation
								JOINT LeftHand
								{
									OFFSET 0.644384 25.716167 -0.328871
									CHANNELS 3 Zrotation Yrotation Xrotation
									JOINT LeftHandThumb1
									{
										OFFSET 2.867323 3.959563 2.944291
										CHANNELS 3 Zrotation Yrotation Xrotation
										JOINT LeftHandThumb2
										{
											OFFSET -0.000000 3.350399 -0.000000
											CHANNELS 3 Zrotation Yrotation Xrotation
											JOINT LeftHandThumb3
											{
												OFFSET 0.000000 3.756509 -0.000000
												CHANNELS 3 Zrotation Yrotation Xrotation
												JOINT LeftHandThumb4
												{
													OFFSET 0.000000 3.100000 0.000000
													CHANNELS 3 Zrotation Yrotation Xrotation
													End Site
													{
														OFFSET 0.000000 0.000000 0.000000
													}
												}
											}
										}
									}
									JOINT LeftHandIndex1
									{
										OFFSET 0.086752 10.030893 2.345280
										CHANNELS 3 Zrotation Yrotation Xrotation
										JOINT LeftHandIndex2
										{
											OFFSET 0.000000 4.061090 0.000000
											CHANNELS 3 Zrotation Yrotation Xrotation
											JOINT LeftHandIndex3
											{
												OFFSET 0.000000 3.248873 0.000000
												CHANNELS 3 Zrotation Yrotation Xrotation
												JOINT LeftHandIndex4
												{
													OFFSET 0.000000 2.639709 0.000000
													CHANNELS 3 Zrotation Yrotation Xrotation
													End Site
													{
														OFFSET 0.000000 0.000000 0.000000
													}
												}
											}
										}
									}
									JOINT LeftHandMiddle1
									{
										OFFSET -0.104102 9.502952 0.006768
										CHANNELS 3 Zrotation Yrotation Xrotation
										JOINT LeftHandMiddle2
										{
											OFFSET 0.000000 4.568727 -0.000000
											CHANNELS 3 Zrotation Yrotation Xrotation
											JOINT LeftHandMiddle3
											{
												OFFSET 0.000000 3.654981 0.000000
												CHANNELS 3 Zrotation Yrotation Xrotation
												JOINT LeftHandMiddle4
												{
													OFFSET 0.000000 2.741236 0.000000
													CHANNELS 3 Zrotation Yrotation Xrotation
													End Site
													{
														OFFSET 0.000000 0.000000 0.000000
													}
												}
											}
										}
									}
									JOINT LeftHandRing1
									{
										OFFSET -0.086752 8.921708 -2.267442
										CHANNELS 3 Zrotation Yrotation Xrotation
										JOINT LeftHandRing2
										{
											OFFSET 0.000000 4.061090 0.000000
											CHANNELS 3 Zrotation Yrotation Xrotation
											JOINT LeftHandRing3
											{
												OFFSET -0.000000 3.654981 -0.000000
												CHANNELS 3 Zrotation Yrotation Xrotation
												JOINT LeftHandRing4
												{
													OFFSET -0.000000 2.741236 -0.000000
													CHANNELS 3 Zrotation Yrotation Xrotation
													End Site
													{
														OFFSET 0.000000 0.000000 0.000000
													}
												}
											}
										}
									}
									JOINT LeftHandPinky1
									{
										OFFSET 0.173504 7.976997 -4.467199
										CHANNELS 3 Zrotation Yrotation Xrotation
										JOINT LeftHandPinky2
										{
											OFFSET 0.000000 3.350399 0.000000
											CHANNELS 3 Zrotation Yrotation Xrotation
											JOINT LeftHandPinky3
											{
												OFFSET 0.000000 2.842763 -0.000000
												CHANNELS 3 Zrotation Yrotation Xrotation
												JOINT LeftHandPinky4
												{
													OFFSET 0.000000 2.639709 0.000000
													CHANNELS 3 Zrotation Yrotation Xrotation
													End Site
													{
														OFFSET 0.000000 0.000000 0.000000
													}
												}
											}
										}
									}
									JOINT LeftForeArmEnd
									{
										OFFSET 0.000000 0.000000 0.000000
										CHANNELS 3 Zrotation Yrotation Xrotation
										End Site
										{
											OFFSET 0.000000 0.000000 0.000000
										}
									}
								}
								JOINT LeftArmEnd
								{
									OFFSET 0.000000 0.000000 0.000000
									CHANNELS 3 Zrotation Yrotation Xrotation
									End Site
									{
										OFFSET 0.000000 0.000000 0.000000
									}
								}
							}
						}
					}
				}
			}
		}
	}
	JOINT RightUpLeg
	{
		OFFSET -11.289943 -0.000000 -0.000000
		CHANNELS 3 Zrotation Yrotation Xrotation
		JOINT RightLeg
		{
			OFFSET -0.000000 -38.200325 0.000000
			CHANNELS 3 Zrotation Yrotation Xrotation
			JOINT RightFoot
			{
				OFFSET 0.000000 -39.900856 0.000000
				CHANNELS 3 Zrotation Yrotation Xrotation
				JOINT RightToeBase
				{
					OFFSET -0.000000 -0.000000 15.261641
					CHANNELS 3 Zrotation Yrotation Xrotation
					JOINT RightToeBaseEnd
					{
						OFFSET -0.000000 -0.000000 7.370709
						CHANNELS 3 Zrotation Yrotation Xrotation
						End Site
						{
							OFFSET 0.000000 0.000000 0.000000
						}
					}
				}
				JOINT RightLegEnd
				{
					OFFSET 0.000000 0.000000 0.000000
					CHANNELS 3 Zrotation Yrotation Xrotation
					End Site
					{
						OFFSET 0.000000 0.000000 0.000000
					}
				}
			}
			JOINT RightUpLegEnd
			{
				OFFSET 0.000000 0.000000 0.000000
				CHANNELS 3 Zrotation Yrotation Xrotation
				End Site
				{
					OFFSET 0.000000 0.000000 0.000000
				}
			}
		}
	}
	JOINT LeftUpLeg
	{
		OFFSET 11.315661 0.000000 -0.000000
		CHANNELS 3 Zrotation Yrotation Xrotation
		JOINT LeftLeg
		{
			OFFSET -0.000000 -38.200325 0.000000
			CHANNELS 3 Zrotation Yrotation Xrotation
			JOINT LeftFoot
			{
				OFFSET 0.000000 -39.900856 0.000000
				CHANNELS 3 Zrotation Yrotation Xrotation
				JOINT LeftToeBase
				{
					OFFSET -0.000000 0.000000 15.261641
					CHANNELS 3 Zrotation Yrotation Xrotation
					JOINT LeftToeBaseEnd
					{
						OFFSET -0.000000 -0.000000 7.539996
						CHANNELS 3 Zrotation Yrotation Xrotation
						End Site
						{
							OFFSET 0.000000 0.000000 0.000000
						}
					}
				}
				JOINT LeftLegEnd
				{
					OFFSET 0.000000 0.000000 0.000000
					CHANNELS 3 Zrotation Yrotation Xrotation
					End Site
					{
						OFFSET 0.000000 0.000000 0.000000
					}
				}
			}
			JOINT LeftUpLegEnd
			{
				OFFSET 0.000000 0.000000 0.000000
				CHANNELS 3 Zrotation Yrotation Xrotation
				End Site
				{
					OFFSET 0.000000 0.000000 0.000000
				}
			}
		}
	}
}
MOTION
Frames: 4
Frame Time: 0.016667
-0.104279 88.258125 2.461052 -0.656524 -0.060783 -5.289307 0.954529 -0.076888 4.918059 -0.543657 0.029261 2.726284 0.751418 -1.519136 2.090649 1.197495 0.002702 0.959722 0.482411 0.707838 3.664479 0.218209 1.692089 -3.332182 -0.882757 -0.978603 -18.217691 0.000000 0.000000 0.000000 89.190453 0.144407 10.191313 64.080154 -34.443798 7.799577 -0.113367 17.222965 24.558565 5.848034 13.863211 -3.157977 10.637670 -1.840801 39.870987 0.000000 0.000000 -25.919998 0.000001 0.000000 -18.000004 0.000000 0.000000 0.000000 10.219835 16.743265 -10.264594 8.884398 -0.796156 -2.692341 8.883582 0.192000 -2.537882 0.000000 0.000000 0.000000 11.733671 6.874250 -10.929679 9.091148 -0.916186 -1.109430 9.089972 0.072496 -0.951432 0.000000 0.000000 0.000000 18.232126 -8.794247 -12.373536 11.337653 1.833027 1.775514 11.331716 -0.132177 1.382435 0.000000 0.000000 0.000000 25.393354 -25.152029 -15.697461 12.066877 3.401218 5.672380 12.045790 -0.510621 4.836784 0.000000 0.000000 0.000000 0.000000 0.000000 0.000000 0.000000 0.000000 0.000000 -86.169395 -0.470481 6.940592 -72.598381 29.712233 -7.820552 -0.523043 -6.786959 41.302921 -4.623736 -15.763072 -12.829064 -10.937046 1.865515 39.738762 0.000000 0.000000 -26.639997 0.000001 0.000000 -18.499998 0.000000 0.000000 0.000000 -17.302471 16.828856 -8.378769 -9.996258 -0.737414 3.026381 -9.995515 0.247369 2.852794 0.000000 0.000000 0.000000 -14.878748 6.913764 -9.047046 -9.594326 -0.900925 1.170291 -9.593703 0.083831 0.993341 0.000000 0.000000 0.000000 -13.590091 -8.895025 -8.830947 -10.402879 1.851220 -1.630819 -10.397419 -0.115532 -1.269751 0.000000 0.000000 0.000000 -10.401943 -25.558514 -11.328734 -9.968866 3.591214 -4.694771 -9.949528 -0.344996 -4.002852 0.000000 0.000000 0.000000 0.000000 0.000000 0.000000 0.000000 0.000000 0.000000 -2.191670 -3.192988 -1.170421 -0.220256 -0.503252 23.638262 1.659589 -13.017710 12.681954 -1.156654 0.571969 -22.004379 0.000000 0.000000 0.000000 0.000000 0.000000 0.000000 0.000000 0.000000 0.000000 0.857901 -13.318384 -3.304535 0.186122 0.464720 21.826706 -0.101554 8.124136 13.829531 0.471486 -0.753927 -21.989355 0.000000 0.000000 0.000000 0.000000 0.000000 0.000000 0.000000 0.000000 0.000000 
0.195153 88.021477 2.228564 0.343448 -0.282650 -7.283313 -0.567951 0.146766 6.319811 0.450635 0.030394 4.665674 0.414466 1.821464 -0.589862 1.586023 0.712121 3.571856 -0.298247 -0.473690 3.429896 1.481076 0.196452 -4.159972 0.198325 -0.634943 -16.706347 0.000000 0.000000 0.000000 88.353508 0.398289 8.437715 62.845730 -26.567890 8.106971 0.475922 11.348177 25.368235 7.520132 14.683166 -5.038579 10.367110 -1.798157 39.995491 0.000006 0.000032 -25.565233 -0.000004 0.000024 -17.703966 0.000010 -0.000003 -0.000004 10.402249 16.986414 -12.303363 9.342781 -0.627540 -2.958557 9.491000 0.357975 -2.773879 -0.000015 -0.000006 -0.000026 12.437267 6.996481 -11.841290 9.490953 -0.841074 -1.214206 9.512821 0.137273 -1.035931 0.000041 -0.000091 0.000022 18.451323 -9.058874 -10.416365 11.304821 1.761687 1.753017 11.254027 -0.192754 1.363593 0.000005 -0.001349 0.000012 23.486156 -25.878773 -10.548855 11.464560 3.276528 5.146261 11.207333 -0.619505 4.382356 -0.000155 -0.000000 -0.000004 0.000000 0.000000 0.000000 0.000000 0.000000 0.000000 -86.966637 -0.432425 8.421032 -70.072624 36.263481 -4.986798 -1.392534 -13.991325 40.979637 -4.857698 -13.532936 -14.173495 -11.036822 1.826228 39.736488 0.000007 0.000017 -26.744267 0.000025 -0.000027 -18.609690 0.000382 -0.000004 0.001846 -17.163063 17.138483 -6.404545 -10.462480 -0.600434 3.257146 -10.780933 0.371082 3.052837 0.000004 0.000063 0.000008 -15.464907 7.055387 -7.248487 -10.379322 -0.849238 1.291271 -10.135528 0.126403 1.096395 -0.000272 -0.000040 -0.000038 -14.147899 -9.035057 -7.687857 -10.729603 1.780240 -1.761897 -10.651053 -0.164677 -1.351460 0.000352 0.000009 0.000001 -10.837405 -25.729891 -10.794567 -9.815197 3.396207 -4.720650 -9.910020 -0.482160 -4.028577 0.000040 -0.000007 -0.000020 0.000000 0.000000 0.000000 0.000000 0.000000 0.000000 -2.715199 -0.759203 1.065749 -0.165341 -0.329309 22.796309 1.030073 -13.711725 15.905372 -0.811392 0.424713 -22.153515 0.000000 0.000000 0.000000 0.000000 0.000000 0.000000 0.000000 0.000000 0.000000 0.065456 -7.473036 1.091961 0.227987 0.443521 19.152166 0.049844 3.119048 15.689085 0.308548 -0.984016 -21.018930 0.000000 0.000000 0.000000 0.000000 0.000000 0.000000 0.000000 0.000000 0.000000 
0.435665 88.027412 2.265514 0.561563 -0.470992 -7.217233 -0.785894 0.192638 6.339667 0.454942 0.046010 4.437827 0.314227 1.942639 -0.327441 1.575685 0.733732 3.499421 -0.258942 -0.751183 3.213134 1.403879 -0.278656 -4.086621 0.345567 -0.517450 -16.692568 0.000000 0.000000 0.000000 88.535645 0.389501 8.421053 62.702110 -26.561308 8.010308 0.453242 11.278275 25.130547 7.848100 13.920997 -5.269741 10.503041 -1.808886 39.933315 0.000002 0.000035 -25.949276 -0.000004 0.000018 -17.960192 0.000013 0.000003 -0.000007 10.920147 16.967131 -12.208473 9.446301 -0.619574 -2.986675 9.602436 0.368235 -2.799372 -0.000005 0.000005 -0.000015 12.816929 6.992429 -11.719172 9.627199 -0.835794 -1.226107 9.640676 0.141877 -1.046354 0.000036 -0.000123 0.000015 18.743786 -9.066044 -10.270074 11.466791 1.755446 1.760345 11.410098 -0.196496 1.369602 -0.000002 -0.001457 0.000010 23.703070 -25.894981 -10.417715 11.628515 3.273586 5.159911 11.355223 -0.624802 4.399285 -0.000211 0.000006 -0.000016 0.000000 0.000000 0.000000 0.000000 0.000000 0.000000 -86.971222 -0.354522 8.501082 -70.077980 35.706127 -4.986328 -1.331470 -14.065714 40.758907 -4.845855 -13.485911 -14.274213 -11.081005 1.822309 39.721241 0.000007 0.000018 -26.882776 0.000009 -0.000020 -18.703947 0.000325 0.000000 0.001900 -17.190977 17.114374 -6.445940 -10.440891 -0.595555 3.265208 -10.758984 0.375258 3.056488 0.000020 0.000063 0.000008 -15.414438 7.055162 -7.355587 -10.347754 -0.846892 1.291217 -10.130826 0.127852 1.096543 -0.000284 -0.000045 -0.000081 -13.971920 -9.037517 -7.752570 -10.690670 1.778017 -1.759021 -10.638597 -0.164970 -1.349153 0.000380 0.000008 0.000001 -10.603755 -25.752169 -10.704353 -9.755751 3.398876 -4.688586 -9.879921 -0.479818 -4.008948 0.000142 0.000001 -0.000033 0.000000 0.000000 0.000000 0.000000 0.000000 0.000000 -3.163576 -0.595599 0.731597 -0.157569 -0.325167 22.792599 1.231009 -13.724000 15.912175 -0.832762 0.405996 -22.083239 0.000000 0.000000 0.000000 0.000000 0.000000 0.000000 0.000000 0.000000 0.000000 -0.286241 -6.786581 1.056979 0.219515 0.442246 18.574661 0.225440 3.080568 15.849190 0.325920 -1.016256 -20.866394 0.000000 0.000000 0.000000 0.000000 0.000000 0.000000 0.000000 0.000000 0.000000 
0.648143 88.046730 2.304484 0.704181 -0.659440 -7.097253 -1.001148 0.230030 6.353095 0.445417 0.054895 4.210391 0.278272 2.038141 -0.108192 1.597437 0.759143 3.476270 -0.276355 -0.986038 3.029775 1.357419 -0.653106 -4.035470 0.447690 -0.443134 -16.664591 0.000000 0.000000 0.000000 88.669662 0.352148 8.364230 62.592903 -26.526217 7.936804 0.424248 11.259460 25.054962 8.101245 13.359955 -5.654481 10.602586 -1.819531 39.882393 0.000001 0.000034 -26.241632 -0.000006 0.000019 -18.156355 0.000011 0.000002 -0.000006 11.412816 16.946796 -12.099213 9.592974 -0.611335 -3.027205 9.765912 0.376780 -2.837717 -0.000006 0.000005 -0.000013 13.262352 6.986200 -11.566004 9.817595 -0.831136 -1.243382 9.824279 0.146055 -1.061779 0.000035 -0.000129 0.000016 19.155638 -9.073023 -10.019144 11.698715 1.750025 1.775998 11.639911 -0.200098 1.382787 -0.000003 -0.001583 0.000011 24.018417 -25.926329 -10.138437 11.869717 3.268890 5.199346 11.580619 -0.631606 4.439040 -0.000255 0.000006 -0.000026 0.000000 0.000000 0.000000 0.000000 0.000000 0.000000 -86.909843 -0.272275 8.518901 -69.967262 35.169754 -4.903536 -1.299747 -14.147362 40.366203 -4.999712 -13.512112 -14.448323 -11.096843 1.820495 39.712559 0.000006 0.000018 -26.973511 0.000003 -0.000022 -18.761858 0.000269 -0.000001 0.001734 -17.323654 17.111450 -6.440096 -10.508855 -0.588669 3.286472 -10.825766 0.381372 3.077392 0.000021 0.000058 0.000008 -15.502428 7.058184 -7.378516 -10.422468 -0.843692 1.298885 -10.220495 0.129940 1.103417 -0.000394 -0.000047 -0.000111 -13.970160 -9.042273 -7.685705 -10.770327 1.775705 -1.769157 -10.730590 -0.166238 -1.357220 0.000423 0.000008 0.000001 -10.558577 -25.765097 -10.479347 -9.795358 3.397391 -4.696321 -9.931211 -0.480390 -4.022471 0.000208 -0.000001 -0.000033 0.000000 0.000000 0.000000 0.000000 0.000000 0.000000 -3.487219 -0.408104 0.489153 -0.151335 -0.321533 22.602253 1.367566 -13.672132 16.037119 -0.843710 0.396582 -22.107939 0.000000 0.000000 0.000000 0.000000 0.000000 0.000000 0.000000 0.000000 0.000000 -0.533542 -6.273814 1.007486 0.210167 0.442931 18.088320 0.362889 3.177711 15.987155 0.340420 -1.030714 -20.769033 0.000000 0.000000 0.000000 0.000000 0.000000 0.000000 0.000000 0.000000 0.000000 
